<?xml version="1.0" standalone="no"?><!DOCTYPE svg PUBLIC "-//W3C//DTD SVG 1.1//EN" "http://www.w3.org/Graphics/SVG/1.1/DTD/svg11.dtd">
<svg t="1755441601187" class="icon" viewBox="0 0 1024 1024" version="1.1" xmlns="http://www.w3.org/2000/svg" p-id="1759" width="40" height="40">
    <path d="M860.672 235.008v677.376c0 15.36-12.288 27.648-28.16 27.648-14.848 0-26.624-11.264-27.648-25.6V264.704h-14.336l58.368-50.176c6.656 4.608 10.752 12.288 11.776 20.48z m-155.648 29.696H58.88c-14.848 0-26.624-11.264-27.648-25.6v-2.048c0-14.336 11.264-26.624 25.6-27.648H769.536l-64.512 55.296z" fill="#754DFF" fill-opacity=".4" p-id="1760"></path>
    <path d="M219.136 744.448v7.68h745.984c14.848 0 26.624 11.264 27.648 25.6v2.048c0 14.336-11.264 26.624-25.6 27.648H191.488c-11.776 0-21.504-7.168-25.6-16.896l53.248-46.08zM191.488 76.8c14.848 0 26.624 11.264 27.648 25.6v569.344l-55.808 47.616V104.448c0-15.36 12.8-27.648 28.16-27.648z" fill="#754DFF" fill-opacity=".6" p-id="1761"></path>
    <path d="M876.544 167.424c11.776-10.24 29.184-8.704 39.424 3.072 9.728 11.264 8.704 27.648-1.024 37.888l-1.536 1.536L209.408 800.256c-11.776 10.24-29.184 8.704-39.424-3.072-9.728-11.264-8.704-27.648 1.024-37.888l1.536-1.536L876.544 167.424z" fill="#754DFF" p-id="1762"></path>
    <path d="M804.864 299.008v453.12H247.296z" fill="#754DFF" fill-opacity=".4" p-id="1763"></path>
    <path d="M280.064 574.464l89.6-217.6 40.96 49.152 20.992 25.088 13.824 16.896z" fill="#754DFF" p-id="1764"></path>
    <path d="M494.08 361.984m-35.84 0a35.84 35.84 0 1 0 71.68 0 35.84 35.84 0 1 0-71.68 0Z" fill="#754DFF" p-id="1765"></path>
</svg>
